<?xml version="1.0" encoding="UTF-8"?><svg id="a" xmlns="http://www.w3.org/2000/svg" xmlns:xlink="http://www.w3.org/1999/xlink" viewBox="0 0 300 300"><defs><style>.p{opacity:.5;}.q{fill:url(#e);}.q,.r,.s,.t,.u,.v,.w,.x,.y{stroke-width:0px;}.r{fill:url(#g);}.s{fill:url(#i);}.t{fill:url(#h);}.u{fill:#fff;}.z{filter:url(#n);}.v{fill:url(#k);filter:url(#l);}.w{fill:url(#j);}.x{fill:url(#d);}.aa{filter:url(#b);}.y{fill:url(#f);}.ab{fill:none;stroke:#fff;stroke-miterlimit:10;stroke-width:2.61px;}</style><filter id="b" filterUnits="userSpaceOnUse"><feOffset dx="9.12" dy="9.12"/><feGaussianBlur result="c" stdDeviation="6.51"/><feFlood flood-color="#0455b7" flood-opacity=".75"/><feComposite in2="c" operator="in"/><feComposite in="SourceGraphic"/></filter><linearGradient id="d" x1="142.7" y1="27.48" x2="146.61" y2="27.48" gradientUnits="userSpaceOnUse"><stop offset="0" stop-color="#fff"/><stop offset=".16" stop-color="#bcdeff"/><stop offset="1" stop-color="#5493ff"/></linearGradient><linearGradient id="e" x1="140.09" y1="9.9" x2="149.21" y2="9.9" xlink:href="#d"/><radialGradient id="f" cx="131.91" cy="110.41" fx="80.39" fy="89.95" r="74.63" gradientUnits="userSpaceOnUse"><stop offset=".24" stop-color="#fff"/><stop offset=".35" stop-color="#f8fbff"/><stop offset=".5" stop-color="#e7f3ff"/><stop offset=".67" stop-color="#cae5ff"/><stop offset=".85" stop-color="#a3d2ff"/><stop offset="1" stop-color="#7fc0ff"/></radialGradient><linearGradient id="g" x1="71.38" y1="105.64" x2="216.62" y2="105.64" gradientUnits="userSpaceOnUse"><stop offset="0" stop-color="#fff"/><stop offset=".16" stop-color="#bcdeff"/><stop offset="1" stop-color="#5493ff"/></linearGradient><linearGradient id="h" x1="103.79" y1="106.41" x2="130.46" y2="106.41" xlink:href="#d"/><linearGradient id="i" x1="157.54" y1="106.21" x2="184.21" y2="106.21" xlink:href="#d"/><linearGradient id="j" x1="129.67" y1="43.42" x2="158.33" y2="43.42" xlink:href="#d"/><radialGradient id="k" cx="71.16" cy="207.9" fx="-27.77" fy="207.9" r="98.93" gradientUnits="userSpaceOnUse"><stop offset=".15" stop-color="#fff"/><stop offset=".87" stop-color="#7fc0ff"/></radialGradient><filter id="l" filterUnits="userSpaceOnUse"><feOffset dx="9.12" dy="9.12"/><feGaussianBlur result="m" stdDeviation="6.51"/><feFlood flood-color="#0455b7" flood-opacity=".75"/><feComposite in2="m" operator="in"/><feComposite in="SourceGraphic"/></filter><filter id="n" filterUnits="userSpaceOnUse"><feOffset dx="2" dy="2"/><feGaussianBlur result="o" stdDeviation="2"/><feFlood flood-color="#0455b7" flood-opacity=".8"/><feComposite in2="o" operator="in"/><feComposite in="SourceGraphic"/></filter></defs><g class="aa"><rect class="x" x="142.7" y="13.16" width="3.91" height="28.66"/><circle class="q" cx="144.65" cy="9.9" r="4.56"/><path class="y" d="M184.87,178.59l-29.94,3.72c-6.82.85-13.72.86-20.55.04l-31.24-3.76c-22.39,0-40.55-18.15-40.55-40.55v-30.27c0-32.83,26.62-59.45,59.45-59.45h43.93c32.83,0,59.45,26.62,59.45,59.45v30.27c0,22.39-18.15,40.55-40.55,40.55Z"/><path class="r" d="M198.47,123.8h-108.93c-10.03,0-18.16-8.13-18.16-18.16h0c0-10.03,11.05-18.16,30.79-18.16h82.1c22.89,0,32.36,8.13,32.36,18.16h0c0,10.03-8.13,18.16-18.16,18.16Z"/><path class="t" d="M117.12,119.75c-7.35,0-13.33-5.98-13.33-13.33s5.98-13.33,13.33-13.33,13.33,5.98,13.33,13.33-5.98,13.33-13.33,13.33Z"/><path class="u" d="M117.12,94.38c6.63,0,12.03,5.4,12.03,12.03s-5.4,12.03-12.03,12.03-12.03-5.4-12.03-12.03,5.4-12.03,12.03-12.03M117.12,91.78c-8.08,0-14.64,6.55-14.64,14.64s6.55,14.64,14.64,14.64,14.64-6.55,14.64-14.64-6.55-14.64-14.64-14.64h0Z"/><path class="s" d="M170.88,119.55c-7.35,0-13.33-5.98-13.33-13.33s5.98-13.33,13.33-13.33,13.33,5.98,13.33,13.33-5.98,13.33-13.33,13.33Z"/><path class="u" d="M170.88,94.18c6.63,0,12.03,5.4,12.03,12.03s-5.4,12.03-12.03,12.03-12.03-5.4-12.03-12.03,5.4-12.03,12.03-12.03M170.88,91.58c-8.08,0-14.64,6.55-14.64,14.64s6.55,14.64,14.64,14.64,14.64-6.55,14.64-14.64-6.55-14.64-14.64-14.64h0Z"/><circle class="u" cx="120.35" cy="103.04" r="6.31"/><circle class="u" cx="167.65" cy="103.04" r="6.31"/><rect class="w" x="129.67" y="38.86" width="28.66" height="9.12"/><g class="p"><circle class="u" cx="142.7" cy="9.25" r="1.3"/></g><path class="ab" d="M176.57,146.68c0,6.12-14.58,11.07-32.57,11.07s-32.57-4.96-32.57-11.07"/></g><path class="v" d="M275.25,190.72c-2.52-7.5-10.64-11.54-18.15-9.02l-54.08,18.17c-2.16-1.9-23.71-7.44-29.07-8.07-6.79-.8-12.96-2-27.36-2s-22.15,1.25-29.48,2c-6.11.63-29.99,6.16-32.15,8.07l-54.08-18.17c-7.5-2.52-15.63,1.52-18.15,9.02s1.52,15.63,9.02,18.15l55.57,18.67c2.06.69,4.16.87,6.18.64l1.37,9.71c2.89,20.52,20.45,35.77,41.17,35.77h35.87c20.72,0,38.28-15.25,41.17-35.77l1.37-9.71c2.02.23,4.13.05,6.18-.64l55.57-18.67c7.5-2.52,11.54-10.64,9.02-18.15Z"/><g class="z"><path class="u" d="M117.67,233.07c0,1.26-.23,2.37-.7,3.36s-1.12,1.81-1.98,2.48c-.85.67-1.87,1.18-3.06,1.53s-2.48.52-3.9.52c-.87,0-1.71-.07-2.5-.21-.79-.14-1.5-.31-2.13-.52s-1.16-.43-1.6-.65c-.44-.23-.76-.43-.96-.61-.2-.18-.35-.44-.44-.76-.09-.33-.14-.77-.14-1.34,0-.34.02-.64.05-.87.04-.24.08-.43.14-.57.05-.15.13-.25.23-.31s.21-.1.34-.1c.2,0,.5.12.89.37.39.25.87.51,1.45.81.57.29,1.25.56,2.03.8.78.25,1.68.37,2.7.37.76,0,1.46-.08,2.07-.25.62-.16,1.16-.41,1.61-.72.45-.32.8-.72,1.05-1.21s.37-1.07.37-1.75-.18-1.27-.53-1.75c-.35-.47-.82-.89-1.41-1.25-.58-.36-1.24-.69-1.96-.97-.73-.28-1.48-.58-2.25-.89-.77-.31-1.53-.66-2.27-1.05-.74-.39-1.4-.87-1.98-1.43-.58-.56-1.05-1.24-1.41-2.02-.35-.78-.53-1.72-.53-2.81,0-.96.19-1.89.56-2.77.37-.88.93-1.66,1.68-2.32s1.68-1.2,2.8-1.6c1.12-.4,2.42-.6,3.92-.6.65,0,1.31.05,1.96.16.65.11,1.25.25,1.77.41.53.16.98.34,1.35.53.37.19.65.36.85.5s.32.27.38.38c.06.11.11.23.14.37.03.14.05.3.08.5s.04.45.04.74c0,.31-.01.58-.04.8-.03.23-.07.41-.14.56-.06.15-.14.25-.23.31-.09.06-.19.09-.3.09-.16,0-.4-.1-.71-.3s-.71-.41-1.2-.64c-.49-.23-1.07-.44-1.73-.64s-1.42-.3-2.28-.3c-.76,0-1.44.09-2.02.26-.58.17-1.06.42-1.43.74-.37.32-.65.7-.85,1.13-.19.44-.29.91-.29,1.42,0,.71.18,1.31.55,1.79.36.48.84.91,1.42,1.27.58.36,1.25.69,1.99.98s1.51.59,2.28.9c.77.31,1.54.65,2.29,1.04.75.38,1.42.85,2.01,1.39s1.05,1.2,1.41,1.96c.35.76.53,1.67.53,2.73Z"/><path class="u" d="M142.61,239.78c0,.22-.07.38-.22.49-.15.11-.35.19-.6.25-.25.05-.63.08-1.12.08s-.85-.03-1.13-.08-.49-.14-.61-.25c-.13-.11-.19-.27-.19-.49v-2.46c-1.07,1.15-2.27,2.04-3.59,2.67s-2.71.96-4.19.96c-1.29,0-2.46-.17-3.51-.5-1.05-.34-1.94-.82-2.67-1.46s-1.31-1.42-1.72-2.35-.61-1.98-.61-3.17c0-1.38.28-2.58.85-3.6s1.37-1.87,2.43-2.54,2.35-1.18,3.88-1.51c1.53-.34,3.25-.5,5.16-.5h3.38v-1.91c0-.95-.1-1.78-.3-2.51s-.52-1.33-.97-1.81c-.45-.48-1.02-.85-1.73-1.09-.71-.25-1.58-.37-2.62-.37-1.11,0-2.11.13-2.99.4-.88.26-1.66.56-2.32.87-.66.32-1.22.61-1.66.87-.45.26-.78.4-1,.4-.15,0-.27-.04-.38-.11-.11-.07-.21-.18-.29-.33-.08-.15-.14-.33-.18-.56-.04-.23-.05-.48-.05-.75,0-.45.03-.81.1-1.08.06-.26.22-.51.46-.75s.67-.51,1.27-.83c.6-.32,1.29-.61,2.07-.87.78-.26,1.64-.48,2.56-.66s1.86-.26,2.81-.26c1.76,0,3.27.2,4.5.6,1.24.4,2.24.99,3,1.76s1.32,1.73,1.66,2.88c.35,1.15.52,2.48.52,4.01v16.56ZM138.13,228.57h-3.85c-1.24,0-2.31.11-3.22.31s-1.66.52-2.26.93c-.6.41-1.04.9-1.32,1.47-.28.57-.42,1.23-.42,1.98,0,1.27.4,2.29,1.21,3.04.81.76,1.94,1.13,3.4,1.13,1.18,0,2.28-.3,3.29-.9s2.07-1.52,3.18-2.76v-5.21Z"/><path class="u" d="M165.23,216.81c0,.4,0,.74-.03,1.01-.02.27-.05.49-.11.64-.05.16-.12.27-.21.35-.08.08-.2.12-.34.12s-.32-.04-.53-.12c-.21-.08-.45-.16-.71-.25s-.56-.16-.89-.23c-.33-.07-.68-.11-1.06-.11-.46,0-.9.09-1.34.27-.44.18-.9.48-1.38.9-.48.42-.99.97-1.51,1.67s-1.11,1.54-1.75,2.54v16.15c0,.15-.04.27-.11.37-.07.1-.19.19-.36.26s-.39.13-.68.16c-.29.04-.66.05-1.12.05s-.8-.02-1.09-.05c-.29-.04-.52-.09-.7-.16-.17-.07-.29-.16-.36-.26-.06-.1-.1-.22-.1-.37v-24.56c0-.15.03-.27.08-.37.05-.1.16-.19.33-.27s.37-.14.63-.16c.26-.03.59-.04,1.01-.04s.73.01,1,.04c.26.03.47.08.62.16.14.08.25.17.31.27.06.1.1.22.1.37v3.58c.67-.98,1.31-1.78,1.9-2.4.59-.62,1.15-1.1,1.68-1.46.53-.35,1.05-.6,1.57-.74s1.04-.21,1.57-.21c.24,0,.51.01.81.04.3.03.61.08.94.15.33.07.62.16.89.25s.45.18.56.27.18.18.22.26c.04.08.07.19.1.31s.04.31.05.56c0,.25.01.58.01,1Z"/><path class="u" d="M187.72,239.78c0,.22-.07.38-.22.49-.15.11-.35.19-.6.25s-.63.08-1.12.08-.85-.03-1.13-.08c-.28-.05-.49-.14-.61-.25-.13-.11-.19-.27-.19-.49v-2.46c-1.07,1.15-2.27,2.04-3.59,2.67-1.32.64-2.72.96-4.19.96-1.29,0-2.46-.17-3.51-.5-1.05-.34-1.94-.82-2.67-1.46-.74-.64-1.31-1.42-1.72-2.35-.41-.93-.61-1.98-.61-3.17,0-1.38.28-2.58.85-3.6.56-1.02,1.37-1.87,2.43-2.54,1.05-.67,2.35-1.18,3.88-1.51,1.53-.34,3.25-.5,5.16-.5h3.38v-1.91c0-.95-.1-1.78-.3-2.51s-.52-1.33-.97-1.81c-.45-.48-1.02-.85-1.73-1.09-.71-.25-1.58-.37-2.62-.37-1.11,0-2.11.13-2.99.4s-1.66.56-2.32.87c-.66.32-1.22.61-1.67.87-.45.26-.78.4-1,.4-.15,0-.27-.04-.38-.11-.11-.07-.2-.18-.29-.33s-.14-.33-.18-.56-.05-.48-.05-.75c0-.45.03-.81.1-1.08.06-.26.22-.51.46-.75.25-.24.67-.51,1.27-.83.6-.32,1.29-.61,2.07-.87s1.64-.48,2.57-.66,1.86-.26,2.81-.26c1.76,0,3.27.2,4.5.6,1.24.4,2.24.99,3,1.76.76.77,1.32,1.73,1.66,2.88.35,1.15.52,2.48.52,4.01v16.56ZM183.24,228.57h-3.85c-1.24,0-2.31.11-3.22.31-.91.21-1.66.52-2.26.93s-1.04.9-1.32,1.47-.42,1.23-.42,1.98c0,1.27.41,2.29,1.21,3.04.81.76,1.94,1.13,3.4,1.13,1.18,0,2.28-.3,3.29-.9s2.07-1.52,3.18-2.76v-5.21Z"/></g></svg>