<?xml version="1.0" encoding="UTF-8"?><svg id="a" xmlns="http://www.w3.org/2000/svg" xmlns:xlink="http://www.w3.org/1999/xlink" viewBox="0 0 300 300"><defs><style>.n{opacity:.5;}.o{fill:url(#e);}.o,.p,.q,.r,.s,.t,.u,.v,.w{stroke-width:0px;}.p{fill:url(#g);}.q{fill:url(#i);}.r{fill:url(#h);}.s{fill:#fff;}.t{fill:url(#k);filter:url(#l);}.u{fill:url(#j);}.v{fill:url(#d);}.x{fill:none;stroke:#fff;stroke-miterlimit:10;stroke-width:2.61px;}.y{filter:url(#b);}.w{fill:url(#f);}</style><filter id="b" filterUnits="userSpaceOnUse"><feOffset dx="9.12" dy="9.12"/><feGaussianBlur result="c" stdDeviation="6.51"/><feFlood flood-color="#0455b7" flood-opacity=".75"/><feComposite in2="c" operator="in"/><feComposite in="SourceGraphic"/></filter><linearGradient id="d" x1="142.7" y1="27.48" x2="146.61" y2="27.48" gradientUnits="userSpaceOnUse"><stop offset="0" stop-color="#fff"/><stop offset=".16" stop-color="#bcdeff"/><stop offset="1" stop-color="#5493ff"/></linearGradient><linearGradient id="e" x1="140.09" y1="9.9" x2="149.21" y2="9.9" xlink:href="#d"/><radialGradient id="f" cx="131.91" cy="110.41" fx="80.39" fy="89.95" r="74.63" gradientUnits="userSpaceOnUse"><stop offset=".24" stop-color="#fff"/><stop offset=".35" stop-color="#f8fbff"/><stop offset=".5" stop-color="#e7f3ff"/><stop offset=".67" stop-color="#cae5ff"/><stop offset=".85" stop-color="#a3d2ff"/><stop offset="1" stop-color="#7fc0ff"/></radialGradient><linearGradient id="g" x1="71.38" y1="105.64" x2="216.62" y2="105.64" gradientUnits="userSpaceOnUse"><stop offset="0" stop-color="#fff"/><stop offset=".16" stop-color="#bcdeff"/><stop offset="1" stop-color="#5493ff"/></linearGradient><linearGradient id="h" x1="103.79" y1="106.41" x2="130.46" y2="106.41" xlink:href="#d"/><linearGradient id="i" x1="157.54" y1="106.21" x2="184.21" y2="106.21" xlink:href="#d"/><linearGradient id="j" x1="129.67" y1="43.42" x2="158.33" y2="43.42" xlink:href="#d"/><radialGradient id="k" cx="71.16" cy="207.9" fx="-27.77" fy="207.9" r="98.93" gradientUnits="userSpaceOnUse"><stop offset=".15" stop-color="#fff"/><stop offset=".87" stop-color="#7fc0ff"/></radialGradient><filter id="l" filterUnits="userSpaceOnUse"><feOffset dx="9.12" dy="9.12"/><feGaussianBlur result="m" stdDeviation="6.51"/><feFlood flood-color="#0455b7" flood-opacity=".75"/><feComposite in2="m" operator="in"/><feComposite in="SourceGraphic"/></filter></defs><g class="y"><rect class="v" x="142.7" y="13.16" width="3.91" height="28.66"/><circle class="o" cx="144.65" cy="9.9" r="4.56"/><path class="w" d="M184.87,178.59l-29.94,3.72c-6.82.85-13.72.86-20.55.04l-31.24-3.76c-22.39,0-40.55-18.15-40.55-40.55v-30.27c0-32.83,26.62-59.45,59.45-59.45h43.93c32.83,0,59.45,26.62,59.45,59.45v30.27c0,22.39-18.15,40.55-40.55,40.55Z"/><path class="p" d="M198.47,123.8h-108.93c-10.03,0-18.16-8.13-18.16-18.16h0c0-10.03,11.05-18.16,30.79-18.16h82.1c22.89,0,32.36,8.13,32.36,18.16h0c0,10.03-8.13,18.16-18.16,18.16Z"/><path class="r" d="M117.12,119.75c-7.35,0-13.33-5.98-13.33-13.33s5.98-13.33,13.33-13.33,13.33,5.98,13.33,13.33-5.98,13.33-13.33,13.33Z"/><path class="s" d="M117.12,94.38c6.63,0,12.03,5.4,12.03,12.03s-5.4,12.03-12.03,12.03-12.03-5.4-12.03-12.03,5.4-12.03,12.03-12.03M117.12,91.78c-8.08,0-14.64,6.55-14.64,14.64s6.55,14.64,14.64,14.64,14.64-6.55,14.64-14.64-6.55-14.64-14.64-14.64h0Z"/><path class="q" d="M170.88,119.55c-7.35,0-13.33-5.98-13.33-13.33s5.98-13.33,13.33-13.33,13.33,5.98,13.33,13.33-5.98,13.33-13.33,13.33Z"/><path class="s" d="M170.88,94.18c6.63,0,12.03,5.4,12.03,12.03s-5.4,12.03-12.03,12.03-12.03-5.4-12.03-12.03,5.4-12.03,12.03-12.03M170.88,91.58c-8.08,0-14.64,6.55-14.64,14.64s6.55,14.64,14.64,14.64,14.64-6.55,14.64-14.64-6.55-14.64-14.64-14.64h0Z"/><circle class="s" cx="120.35" cy="103.04" r="6.31"/><circle class="s" cx="167.65" cy="103.04" r="6.31"/><rect class="u" x="129.67" y="38.86" width="28.66" height="9.12"/><g class="n"><circle class="s" cx="142.7" cy="9.25" r="1.3"/></g><path class="x" d="M176.57,146.68c0,6.12-14.58,11.07-32.57,11.07s-32.57-4.96-32.57-11.07"/></g><path class="t" d="M275.25,190.72c-2.52-7.5-10.64-11.54-18.15-9.02l-54.08,18.17c-2.16-1.9-23.71-7.44-29.07-8.07-6.79-.8-12.96-2-27.36-2s-22.15,1.25-29.48,2c-6.11.63-29.99,6.16-32.15,8.07l-54.08-18.17c-7.5-2.52-15.63,1.52-18.15,9.02s1.52,15.63,9.02,18.15l55.57,18.67c2.06.69,4.16.87,6.18.64l1.37,9.71c2.89,20.52,20.45,35.77,41.17,35.77h35.87c20.72,0,38.28-15.25,41.17-35.77l1.37-9.71c2.02.23,4.13.05,6.18-.64l55.57-18.67c7.5-2.52,11.54-10.64,9.02-18.15Z"/></svg>