<?xml version="1.0" encoding="utf-8"?>
<!-- Generator: Adobe Illustrator 27.5.0, SVG Export Plug-In . SVG Version: 6.00 Build 0)  -->
<svg version="1.2" baseProfile="tiny" id="Layer_1" xmlns="http://www.w3.org/2000/svg" xmlns:xlink="http://www.w3.org/1999/xlink"
	 x="0px" y="0px" viewBox="0 0 494.22 51.05" overflow="visible" xml:space="preserve">
<g>
	<g class="sara">
		<path d="M35.68,33.21c0,4.71-3.95,7.04-11.8,7.04H6.09c-2.38,0-3.62-1-3.62-2.95c0-2,1.24-3,3.62-3h17.79
			c2.76,0,4.14-0.38,4.14-1.14v-1.81c0-0.76-1.38-1.09-4.09-1.09h-9.99c-7.47,0-11.18-2-11.18-6.09V22.5c0-4.9,3.95-7.33,11.89-7.33
			h5.52c2.38,0,3.57,1,3.57,2.95c0,2-1.19,2.95-3.57,2.95h-5.52c-2.85,0-4.28,0.48-4.28,1.43v1.38c0,0.81,1.43,1.19,4.23,1.19h9.99
			c7.37,0,11.09,2,11.09,5.95V33.21z"/>
		<path d="M51.53,40.25c-7.04,0-10.56-2.24-10.56-6.71v-2.95c0-4.47,3.52-6.66,10.56-6.66h18.7v-1.05c0-1.19-1.38-1.81-4.14-1.81
			h-5.42c-2.38,0-3.57-0.95-3.57-2.95c0-1.95,1.19-2.95,3.57-2.95h5.42c7.85,0,11.75,2.52,11.75,7.66v10.13
			c0,4.85-3.57,7.28-10.85,7.28H51.53z M70.22,32.68v-3.85H52.43c-2.52,0-3.81,0.57-3.81,1.57v2.33c0,1.05,1.28,1.57,3.81,1.57
			h13.89C68.89,34.3,70.22,33.78,70.22,32.68z"/>
		<path d="M84.97,23.31c0-5.42,4.28-8.14,12.8-8.14h2.66c2.52,0,3.76,1,3.76,3.09s-1.24,3.14-3.76,3.14h-3.04
			c-3.04,0-4.57,0.57-4.57,1.81V37.2c0,2.19-1.33,3.28-3.95,3.28s-3.9-1.14-3.9-3.28V23.31z"/>
		<path d="M113.71,40.25c-7.04,0-10.56-2.24-10.56-6.71v-2.95c0-4.47,3.52-6.66,10.56-6.66h18.7v-1.05c0-1.19-1.38-1.81-4.14-1.81
			h-5.42c-2.38,0-3.57-0.95-3.57-2.95c0-1.95,1.19-2.95,3.57-2.95h5.42c7.85,0,11.75,2.52,11.75,7.66v10.13
			c0,4.85-3.57,7.28-10.85,7.28H113.71z M132.41,32.68v-3.85h-17.79c-2.52,0-3.81,0.57-3.81,1.57v2.33c0,1.05,1.28,1.57,3.81,1.57
			h13.89C131.07,34.3,132.41,33.78,132.41,32.68z"/>
			</g>
	<g class="sjodin">
		<path d="M179.22,33.21c0,4.71-3.95,7.04-11.8,7.04h-17.79c-2.38,0-3.62-1-3.62-2.95c0-2,1.24-3,3.62-3h17.79
			c2.76,0,4.14-0.38,4.14-1.14v-1.81c0-0.76-1.38-1.09-4.09-1.09h-9.99c-7.47,0-11.18-2-11.18-6.09V22.5c0-4.9,3.95-7.33,11.89-7.33
			h5.52c2.38,0,3.57,1,3.57,2.95c0,2-1.19,2.95-3.57,2.95h-5.52c-2.85,0-4.28,0.48-4.28,1.43v1.38c0,0.81,1.43,1.19,4.23,1.19h9.99
			c7.37,0,11.09,2,11.09,5.95V33.21z"/>
		<path d="M182.98,48.24c-2.52,0-3.76-1.05-3.76-3.09c0-2.09,1.24-3.14,3.76-3.14h3.38c3.14,0,4.62-0.62,4.62-1.86V18.17
			c0-2.14,1.33-3.24,3.95-3.24s3.9,1.09,3.9,3.24v21.89c0,5.47-4.23,8.18-12.85,8.18H182.98z M194.97,12.94
			c-2.76,0-4.14-1.09-4.14-3.33c0-2.19,1.38-3.28,4.14-3.28c2.71,0,4.09,1.09,4.09,3.28C199.06,11.85,197.68,12.94,194.97,12.94z"/>
		<path d="M218.85,40.25c-8.52,0-12.8-2.71-12.8-8.18v-8.75c0-5.42,4.28-8.14,12.8-8.14h9.61c8.56,0,12.85,2.71,12.85,8.14v8.75
			c0,5.47-4.28,8.18-12.85,8.18H218.85z M233.46,23.26c0-1.24-1.57-1.86-4.61-1.86h-10.32c-3.09,0-4.61,0.62-4.61,1.86v8.9
			c0,1.24,1.52,1.86,4.61,1.86h10.32c3.04,0,4.61-0.62,4.61-1.86V23.26z"/>
		<path d="M261.38,40.25c-8.52,0-12.8-2.71-12.8-8.18v-8.75c0-5.42,4.28-8.14,12.8-8.14h14.94V8.9c0-2.14,1.38-3.24,3.95-3.24
			c2.62,0,3.95,1.09,3.95,3.24v23.17c0,5.47-4.28,8.18-12.85,8.18H261.38z M276.32,32.16V21.41h-15.27c-3.04,0-4.62,0.62-4.62,1.86
			v8.9c0,1.24,1.57,1.86,4.62,1.86h10.7C274.85,34.02,276.32,33.4,276.32,32.16z"/>
		<path d="M295.5,12.94c-2.76,0-4.14-1.09-4.14-3.33c0-2.19,1.38-3.28,4.14-3.28c2.71,0,4.09,1.09,4.09,3.28
			C299.59,11.85,298.21,12.94,295.5,12.94z M291.59,18.17c0-2.14,1.33-3.24,3.9-3.24c2.66,0,3.95,1.09,3.95,3.24V37.2
			c0,2.19-1.28,3.28-3.9,3.28s-3.95-1.09-3.95-3.28V18.17z"/>
		<path d="M334.13,23.26c0-1.24-1.52-1.86-4.62-1.86h-10.32c-3.04,0-4.57,0.62-4.57,1.86V37.2c0,2.19-1.28,3.28-3.9,3.28
			c-2.66,0-3.95-1.09-3.95-3.28V23.36c0-5.47,4.28-8.18,12.8-8.18h9.61c8.52,0,12.8,2.71,12.8,8.18V37.2c0,2.19-1.28,3.28-3.9,3.28
			s-3.95-1.09-3.95-3.28V23.26z"/>
		<path d="M353.11,40.49c-2.81,0-4.23-1.14-4.23-3.43s1.43-3.43,4.28-3.43c2.85,0,4.28,1.14,4.28,3.43S356.01,40.49,353.11,40.49z"
			/>
		<path d="M375.71,40.25c-8.52,0-12.8-2.71-12.8-8.18v-8.75c0-5.42,4.28-8.14,12.8-8.14h15.99c2.52,0,3.81,1,3.81,3.09
			s-1.28,3.14-3.81,3.14h-16.32c-3.09,0-4.61,0.62-4.61,1.86v8.9c0,1.24,1.52,1.86,4.61,1.86h16.32c2.52,0,3.81,1.05,3.81,3.14
			c0,2.05-1.28,3.09-3.81,3.09H375.71z"/>
		<path d="M414.06,40.25c-8.52,0-12.8-2.71-12.8-8.18v-8.75c0-5.42,4.28-8.14,12.8-8.14h9.61c8.56,0,12.85,2.71,12.85,8.14v8.75
			c0,5.47-4.28,8.18-12.85,8.18H414.06z M428.66,23.26c0-1.24-1.57-1.86-4.61-1.86h-10.32c-3.09,0-4.61,0.62-4.61,1.86v8.9
			c0,1.24,1.52,1.86,4.61,1.86h10.32c3.04,0,4.61-0.62,4.61-1.86V23.26z"/>
		<path d="M482.76,23.22c0-1.24-1.33-1.81-4.04-1.81h-3.62c-2.81,0-4.14,0.57-4.14,1.81V37.2c0,2.19-1.28,3.28-3.85,3.28
			c-2.57,0-3.85-1.09-3.85-3.28V23.22c0-1.24-1.38-1.81-4.14-1.81h-3.62c-2.71,0-4.04,0.57-4.04,1.81V37.2
			c0,2.19-1.28,3.28-3.9,3.28c-2.66,0-3.95-1.09-3.95-3.28V23.26c0-5.38,4.09-8.09,12.27-8.09h3.62c2.95,0,5.52,0.9,7.61,2.66
			c2.09-1.76,4.62-2.66,7.61-2.66h3.66c8.18,0,12.23,2.71,12.23,8.09V37.2c0,2.19-1.28,3.28-3.95,3.28c-2.57,0-3.9-1.09-3.9-3.28
			V23.22z"/>
	</g>
	<g class="com">
		<path d="M353.11,40.49c-2.81,0-4.23-1.14-4.23-3.43s1.43-3.43,4.28-3.43c2.85,0,4.28,1.14,4.28,3.43S356.01,40.49,353.11,40.49z"
			/>
		<path d="M375.71,40.25c-8.52,0-12.8-2.71-12.8-8.18v-8.75c0-5.42,4.28-8.14,12.8-8.14h15.99c2.52,0,3.81,1,3.81,3.09
			s-1.28,3.14-3.81,3.14h-16.32c-3.09,0-4.61,0.62-4.61,1.86v8.9c0,1.24,1.52,1.86,4.61,1.86h16.32c2.52,0,3.81,1.05,3.81,3.14
			c0,2.05-1.28,3.09-3.81,3.09H375.71z"/>
		<path d="M414.06,40.25c-8.52,0-12.8-2.71-12.8-8.18v-8.75c0-5.42,4.28-8.14,12.8-8.14h9.61c8.56,0,12.85,2.71,12.85,8.14v8.75
			c0,5.47-4.28,8.18-12.85,8.18H414.06z M428.66,23.26c0-1.24-1.57-1.86-4.61-1.86h-10.32c-3.09,0-4.61,0.62-4.61,1.86v8.9
			c0,1.24,1.52,1.86,4.61,1.86h10.32c3.04,0,4.61-0.62,4.61-1.86V23.26z"/>
		<path d="M482.76,23.22c0-1.24-1.33-1.81-4.04-1.81h-3.62c-2.81,0-4.14,0.57-4.14,1.81V37.2c0,2.19-1.28,3.28-3.85,3.28
			c-2.57,0-3.85-1.09-3.85-3.28V23.22c0-1.24-1.38-1.81-4.14-1.81h-3.62c-2.71,0-4.04,0.57-4.04,1.81V37.2
			c0,2.19-1.28,3.28-3.9,3.28c-2.66,0-3.95-1.09-3.95-3.28V23.26c0-5.38,4.09-8.09,12.27-8.09h3.62c2.95,0,5.52,0.9,7.61,2.66
			c2.09-1.76,4.62-2.66,7.61-2.66h3.66c8.18,0,12.23,2.71,12.23,8.09V37.2c0,2.19-1.28,3.28-3.95,3.28c-2.57,0-3.9-1.09-3.9-3.28
			V23.22z"/>
	</g>
</g>
</svg>
